<?xml version="1.0" encoding="UTF-8"?>
<svg width="32" height="32" viewBox="0 0 32 32" fill="none" xmlns="http://www.w3.org/2000/svg">
  <path d="M24 20H8C5.79086 20 4 18.2091 4 16C4 13.7909 5.79086 12 8 12C8.12649 12 8.25117 12.0039 8.37377 12.0114C8.13519 10.0049 9.85651 8 12 8C14.2091 8 16 9.79086 16 12C16 12.1265 15.9961 12.2512 15.9886 12.3738C17.9951 12.1352 20 13.8565 20 16C20 18.2091 18.2091 20 16 20C16.1265 20 16.2512 19.9961 16.3738 19.9886C16.1352 21.9951 14.2091 24 12 24C9.79086 24 8 22.2091 8 20" stroke="#5c7a8a" stroke-width="2" stroke-linecap="round" stroke-linejoin="round"/>
</svg> 